<svg width="62" height="63" viewBox="0 0 62 63" fill="none" xmlns="http://www.w3.org/2000/svg">
<g clip-path="url(#clip0_1_1251)">
<path d="M31 0.501953C22.5874 0.501953 21.5295 0.540703 18.2241 0.687953C14.9188 0.842953 12.6674 1.3622 10.695 2.12945C8.62515 2.90571 6.7508 4.12662 5.20413 5.70608C3.62467 7.25275 2.40376 9.1271 1.6275 11.197C0.86025 13.1655 0.337125 15.4207 0.186 18.7145C0.03875 22.0276 0 23.0816 0 31.5058C0 39.9223 0.03875 40.9763 0.186 44.2817C0.341 47.5832 0.86025 49.8346 1.6275 51.807C2.42188 53.8452 3.47975 55.5735 5.20413 57.2978C6.92463 59.0222 8.65287 60.084 10.6911 60.8745C12.6674 61.6417 14.9149 62.1648 18.2164 62.316C21.5256 62.4632 22.5796 62.502 31 62.502C39.4204 62.502 40.4705 62.4632 43.7798 62.316C47.0774 62.161 49.3365 61.6417 51.3089 60.8745C53.3773 60.0977 55.2503 58.8768 56.7959 57.2978C58.5202 55.5735 59.5781 53.8452 60.3725 51.807C61.1359 49.8346 61.659 47.5832 61.814 44.2817C61.9613 40.9763 62 39.9223 62 31.502C62 23.0816 61.9613 22.0276 61.814 18.7183C61.659 15.4207 61.1359 13.1655 60.3725 11.197C59.5962 9.1271 58.3753 7.25275 56.7959 5.70608C55.2492 4.12662 53.3749 2.90571 51.305 2.12945C49.3288 1.3622 47.0735 0.839078 43.7759 0.687953C40.4666 0.540703 39.4165 0.501953 30.9923 0.501953H31ZM28.2216 6.0897H31.0039C39.2809 6.0897 40.2612 6.11683 43.5279 6.26795C46.5504 6.40358 48.1934 6.9112 49.2861 7.33358C50.7315 7.89545 51.7661 8.5697 52.8511 9.6547C53.9361 10.7397 54.6065 11.7705 55.1684 13.2197C55.5946 14.3086 56.0984 15.9516 56.234 18.9741C56.3851 22.2407 56.4161 23.2211 56.4161 31.4942C56.4161 39.7673 56.3851 40.7516 56.234 44.0182C56.0984 47.0407 55.5908 48.6798 55.1684 49.7726C54.6679 51.1168 53.8751 52.3331 52.8472 53.3337C51.7622 54.4187 50.7315 55.0891 49.2823 55.651C48.1973 56.0772 46.5542 56.581 43.5279 56.7205C40.2612 56.8677 39.2809 56.9026 31.0039 56.9026C22.7269 56.9026 21.7426 56.8677 18.476 56.7205C15.4535 56.581 13.8144 56.0772 12.7216 55.651C11.3764 55.1521 10.1587 54.3606 9.15662 53.3337C8.12694 52.3324 7.33277 51.1147 6.83162 49.7687C6.40925 48.6798 5.90163 47.0368 5.766 44.0143C5.61875 40.7477 5.58775 39.7673 5.58775 31.4865C5.58775 23.2056 5.61875 22.233 5.766 18.9663C5.9055 15.9438 6.40925 14.3008 6.8355 13.2081C7.39738 11.7627 8.07162 10.7281 9.15662 9.64308C10.2416 8.55808 11.2724 7.8877 12.7216 7.32583C13.8144 6.89958 15.4535 6.39583 18.476 6.25633C21.3358 6.12458 22.444 6.08583 28.2216 6.08195V6.0897ZM47.5501 11.2357C47.0616 11.2357 46.5779 11.3319 46.1265 11.5189C45.6752 11.7058 45.2651 11.9798 44.9197 12.3253C44.5743 12.6707 44.3002 13.0808 44.1133 13.5321C43.9263 13.9835 43.8301 14.4672 43.8301 14.9557C43.8301 15.4442 43.9263 15.928 44.1133 16.3793C44.3002 16.8306 44.5743 17.2407 44.9197 17.5861C45.2651 17.9316 45.6752 18.2056 46.1265 18.3925C46.5779 18.5795 47.0616 18.6757 47.5501 18.6757C48.5367 18.6757 49.4829 18.2838 50.1806 17.5861C50.8782 16.8885 51.2701 15.9423 51.2701 14.9557C51.2701 13.9691 50.8782 13.0229 50.1806 12.3253C49.4829 11.6276 48.5367 11.2357 47.5501 11.2357ZM31.0039 15.5835C28.8923 15.5505 26.7952 15.938 24.8348 16.7232C22.8744 17.5085 21.0897 18.676 19.5848 20.1576C18.0799 21.6392 16.8848 23.4054 16.069 25.3533C15.2532 27.3013 14.8331 29.392 14.8331 31.5039C14.8331 33.6157 15.2532 35.7065 16.069 37.6544C16.8848 39.6024 18.0799 41.3686 19.5848 42.8502C21.0897 44.3318 22.8744 45.4992 24.8348 46.2845C26.7952 47.0698 28.8923 47.4573 31.0039 47.4243C35.1832 47.3591 39.1693 45.6531 42.1018 42.6745C45.0342 39.696 46.6779 35.6837 46.6779 31.5039C46.6779 27.324 45.0342 23.3118 42.1018 20.3332C39.1693 17.3547 35.1832 15.6487 31.0039 15.5835ZM31.0039 21.1673C32.361 21.1673 33.7049 21.4346 34.9588 21.954C36.2126 22.4734 37.3519 23.2346 38.3116 24.1943C39.2712 25.1539 40.0325 26.2932 40.5518 27.5471C41.0712 28.8009 41.3385 30.1448 41.3385 31.502C41.3385 32.8591 41.0712 34.203 40.5518 35.4568C40.0325 36.7107 39.2712 37.85 38.3116 38.8096C37.3519 39.7693 36.2126 40.5305 34.9588 41.0499C33.7049 41.5693 32.361 41.8366 31.0039 41.8366C28.263 41.8366 25.6343 40.7478 23.6962 38.8096C21.7581 36.8715 20.6693 34.2429 20.6693 31.502C20.6693 28.761 21.7581 26.1324 23.6962 24.1943C25.6343 22.2562 28.263 21.1673 31.0039 21.1673Z" fill="white"/>
</g>
<defs>
<clipPath id="clip0_1_1251">
<rect width="62" height="62" fill="white" transform="translate(0 0.501953)"/>
</clipPath>
</defs>
</svg>
