<svg width="65" height="66" viewBox="0 0 65 66" fill="none" xmlns="http://www.w3.org/2000/svg">
<g clip-path="url(#clip0_1_1255)">
<path d="M0 5.15758C0 2.58602 2.13687 0.501953 4.77344 0.501953H60.2266C62.8631 0.501953 65 2.58602 65 5.15758V60.8463C65 63.4179 62.8631 65.502 60.2266 65.502H4.77344C2.13687 65.502 0 63.4179 0 60.8463V5.15758ZM20.0809 54.9151V25.5635H10.3269V54.9151H20.0809ZM15.2059 21.5538C18.6063 21.5538 20.7228 19.3032 20.7228 16.4838C20.6619 13.6035 18.6103 11.4138 15.2709 11.4138C11.9316 11.4138 9.75 13.6076 9.75 16.4838C9.75 19.3032 11.8666 21.5538 15.1409 21.5538H15.2059ZM35.1447 54.9151V38.5229C35.1447 37.6454 35.2097 36.7679 35.4697 36.1423C36.1725 34.3913 37.7772 32.5754 40.4747 32.5754C44.005 32.5754 45.4147 35.2648 45.4147 39.2135V54.9151H55.1688V38.0801C55.1688 29.0613 50.3587 24.8688 43.94 24.8688C38.7644 24.8688 36.4447 27.7126 35.1447 29.7154V29.817H35.0797L35.1447 29.7154V25.5635H25.3947C25.5166 28.3179 25.3947 54.9151 25.3947 54.9151H35.1447Z" fill="white"/>
</g>
<defs>
<clipPath id="clip0_1_1255">
<rect width="65" height="65" fill="white" transform="translate(0 0.501953)"/>
</clipPath>
</defs>
</svg>
