<svg width="62" height="63" viewBox="0 0 62 63" fill="none" xmlns="http://www.w3.org/2000/svg">
<g clip-path="url(#clip0_1_1253)">
<path d="M34.875 0.501953H42.5475C43.1055 3.27258 44.64 6.76783 47.3331 10.236C49.9681 13.6343 53.4634 16.002 58.125 16.002V23.752C51.3321 23.752 46.2288 20.5977 42.625 16.6646V43.127C42.625 46.959 41.4887 50.7049 39.3597 53.8911C37.2308 57.0773 34.2048 59.5607 30.6645 61.0271C27.1242 62.4936 23.2285 62.8773 19.4701 62.1297C15.7118 61.3821 12.2595 59.5368 9.54981 56.8271C6.84017 54.1175 4.99488 50.6652 4.24729 46.9068C3.49971 43.1484 3.88339 39.2528 5.34984 35.7125C6.81629 32.1721 9.29963 29.1462 12.4858 27.0172C15.672 24.8883 19.418 23.752 23.25 23.752V31.502C20.9508 31.502 18.7032 32.1837 16.7915 33.4611C14.8798 34.7385 13.3898 36.5541 12.5099 38.6783C11.63 40.8024 11.3998 43.1398 11.8484 45.3949C12.2969 47.6499 13.4041 49.7213 15.0299 51.3471C16.6557 52.9729 18.7271 54.08 20.9821 54.5286C23.2371 54.9771 25.5745 54.7469 27.6987 53.8671C29.8229 52.9872 31.6385 51.4972 32.9158 49.5855C34.1932 47.6737 34.875 45.4262 34.875 43.127V0.501953Z" fill="white"/>
</g>
<defs>
<clipPath id="clip0_1_1253">
<rect width="62" height="62" fill="white" transform="translate(0 0.501953)"/>
</clipPath>
</defs>
</svg>
