<svg width="71" height="52" viewBox="0 0 71 52" fill="none" xmlns="http://www.w3.org/2000/svg">
<path d="M35.7285 0.501953H36.1235C39.7714 0.515566 58.2547 0.6517 63.2383 2.02211C64.7449 2.44035 66.1178 3.25557 67.2197 4.38632C68.3217 5.51707 69.1141 6.92373 69.5178 8.46574C69.966 10.1901 70.2811 12.4726 70.4941 14.8277L70.5385 15.2996L70.6361 16.4794L70.6716 16.9514C70.9601 21.0989 70.9956 24.9832 71 25.8318V26.1721C70.9956 27.0524 70.9556 31.2 70.6361 35.5199L70.6006 35.9964L70.5607 36.4683C70.3388 39.0639 70.0104 41.6414 69.5178 43.5382C69.1141 45.0802 68.3217 46.4868 67.2197 47.6176C66.1178 48.7483 64.7449 49.5636 63.2383 49.9818C58.0905 51.3976 38.5243 51.4974 35.8129 51.502H35.1827C33.8114 51.502 28.1399 51.4747 22.1933 51.266L21.4389 51.2388L21.0528 51.2206L20.294 51.1888L19.5351 51.1571C14.6092 50.9347 9.91843 50.5763 7.75724 49.9773C6.25117 49.5594 4.87867 48.7449 3.77678 47.615C2.67488 46.4851 1.88216 45.0793 1.47778 43.5382C0.985187 41.6459 0.656791 39.0639 0.434902 36.4683L0.3994 35.9919L0.363898 35.5199C0.143622 32.4452 0.0222569 29.3639 0 26.281L0 25.7229C0.00887556 24.7473 0.0443778 21.3757 0.284018 17.6547L0.315082 17.1873L0.328396 16.9514L0.363898 16.4794L0.461529 15.2996L0.505907 14.8277C0.71892 12.4726 1.034 10.1856 1.48222 8.46574C1.88592 6.92373 2.67834 5.51707 3.78028 4.38632C4.88221 3.25557 6.25508 2.44035 7.76167 2.02211C9.92287 1.4322 14.6136 1.06917 19.5395 0.842286L20.294 0.810521L21.0573 0.783296L21.4389 0.769682L22.1978 0.737918C26.4212 0.599078 30.6464 0.521927 34.8721 0.506491L35.7285 0.501953ZM28.4018 15.0682V36.9312L46.8496 26.0042L28.4018 15.0682Z" fill="#F7F2F2"/>
</svg>
